<?xml version="1.0" encoding="UTF-8"?>
<svg id="Capa_1" xmlns="http://www.w3.org/2000/svg" version="1.1" viewBox="0 0 512 512">
  <!-- Generator: Adobe Illustrator 29.7.0, SVG Export Plug-In . SVG Version: 2.1.1 Build 14)  -->
  <defs>
    <style>
      .st0 {
        fill: #971f68;
      }
    </style>
  </defs>
  <path class="st0" d="M157.47,308.19h82.47v-33.73h-48.73v-78.73c0-35.2-28.54-63.73-63.73-63.73h-31.87c-35.2,0-63.73,28.54-63.73,63.73v16.87h125.6v95.6h0Z"/>
  <path class="st0" d="M254.94,338.19h-97.47v48.73h65.6v88.7h48.73v-120.57c0-9.3-7.57-16.87-16.87-16.87h0Z"/>
  <path class="st0" d="M269.94,310.66c18.51,6.27,31.87,23.79,31.87,44.39v4.98h30v-30h30v30h30v30h-30v30h-30v-30h-30v85.58h210.2v-201.17h-242.06v36.21Z"/>
  <path class="st0" d="M384.49,244.45h95.64v-48.73c0-35.2-28.54-63.73-63.73-63.73h-31.87c-30.03,0-55.2,20.78-61.94,48.73h53.94l7.97,63.73Z"/>
  <circle class="st0" cx="400.46" cy="84.18" r="47.8"/>
  <circle class="st0" cx="111.54" cy="84.18" r="47.8"/>
  <path class="st0" d="M354.26,244.45l-4.22-33.73h-75.99l4.22,33.73h75.99Z"/>
  <path class="st0" d="M127.47,242.59H0v233.03h30v-88.7h67.47v88.7h30v-233.03Z"/>
</svg>