<?xml version="1.0" encoding="UTF-8"?>
<svg id="Layer_1" xmlns="http://www.w3.org/2000/svg" version="1.1" viewBox="0 0 512 512">
  <!-- Generator: Adobe Illustrator 29.7.0, SVG Export Plug-In . SVG Version: 2.1.1 Build 14)  -->
  <defs>
    <style>
      .st0 {
        fill: #971f68;
      }
    </style>
  </defs>
  <path class="st0" d="M195.12,126.48c-.06-.3-.15-.57-.24-.87l.54-9.06.06-.75c.78-9.5,5.18-18.34,12.29-24.68,6.98-6.32,16.2-9.58,25.61-9.06l.72.06c18.83,1.53,32.83,14.72,46.54,27.71,1.08,1.02,2.16,2.04,3.27,3.06l110.65,103.81h-39.64l-75.2-74.69c-2.87-2.87-7.53-2.87-10.41,0,0,0-.02.02-.03.03-1.28,1.27-2.04,2.97-2.13,4.77l-2.7,45.13-11.72-3.9-14.42-70.46c-.82-4-4.73-6.57-8.73-5.75-3.99.82-6.56,4.72-5.75,8.72l15.29,74.63c.56,2.71,2.58,4.89,5.25,5.64l24.05,8.01c.33.12.66.24.99.33l47.32,15.77c3.68,1.23,6.73,3.87,8.46,7.35.38.78.7,1.6.96,2.43.04.23.1.46.18.69.65,2.63.54,5.4-.3,7.98l-.06.21c-1.26,3.63-3.88,6.62-7.32,8.34-1.02.51-2.1.9-3.21,1.17-.23.03-.46.08-.69.15-2.4.46-4.88.31-7.2-.45l-36.22-12.08c-.31-.12-.63-.22-.96-.3l-43.44-14.48c-7.68-2.39-13.4-8.85-14.84-16.76l-16.94-82.67ZM242.34,68.37c.66.15,1.35.27,2.01.42,1.28.25,2.57.42,3.87.51l.42.03c18.97,1.18,35.34-13.16,36.67-32.11l.03-.45c1.13-19.12-13.45-35.54-32.57-36.67-19.12-1.13-35.54,13.45-36.67,32.57-.99,16.67,10.04,31.67,26.24,35.71h0ZM234.97,276.77c3.9-6.77,10.33-11.71,17.87-13.73,2.42-.63,4.91-.96,7.41-.99l.54-9.3-38.5-12.83c-6.23-2.02-11.82-5.65-16.19-10.52-4.29-4.92-7.23-10.87-8.52-17.27l-6.09-29.81-6,100.39h46.06l3.42-5.93ZM115.15,344.71c1.76,5.8,4.92,11.09,9.2,15.38,6.86,6.89,16.18,10.76,25.91,10.77,9.71,0,32.53.03,67.71.03h.63c3.94.04,7.82-.96,11.24-2.91l.36-.18c3.25-2,5.94-4.8,7.8-8.13.07-.13.15-.25.24-.36l34.93-60.51c1.36-2.39,2.02-5.11,1.92-7.86-.03-.23-.05-.46-.06-.69-.06-.87-.21-1.74-.45-2.58-.99-3.76-3.44-6.98-6.81-8.94l-.3-.18c-.71-.39-1.45-.71-2.22-.96-.24-.06-.45-.15-.66-.21-2.58-.74-5.32-.76-7.92-.06-3.75.99-6.96,3.42-8.91,6.78l-31.03,53.76c-1.33,2.29-3.77,3.69-6.42,3.69v.03h-61.17c-4.09-.05-7.37-3.4-7.32-7.49.05-4.02,3.3-7.27,7.32-7.32h56.94l16.91-29.27h-72.74c-20.23.04-36.63,16.44-36.67,36.67,0,3.46.49,6.9,1.44,10.23.05.09.09.19.12.3h0ZM345.85,233.26c-1.61.68-3.13,1.56-4.53,2.61.4,3.94,0,7.91-1.17,11.69v.03c-.11.4-.25.79-.42,1.17-2.55,7.12-7.75,12.97-14.51,16.34-1.21.59-2.45,1.11-3.72,1.56l-15.41,26.69c-1.24,2.55-3.82,4.17-6.66,4.17h-10.2c-.63,3.04-1.74,5.95-3.3,8.64l-34.93,60.54c-.09.12-.15.27-.24.39-.76,1.33-1.6,2.61-2.52,3.84,18.23,0,38.78.01,61.65.03h159.62c4.62.07,9.11-1.55,12.62-4.56,5.56-4.55,6.37-12.74,1.83-18.29-.55-.67-1.16-1.28-1.83-1.83-3.5-3.03-7.99-4.67-12.62-4.59h-144.68c-1.32,0-2.62-.36-3.75-1.05-3.51-2.07-4.68-6.59-2.61-10.11l39.04-65.7c1.27-2.48,3.82-4.03,6.6-4.02h100.08c8.09,0,14.65-6.56,14.65-14.65s-6.56-14.65-14.65-14.65h-109.47c-3.05-.02-6.06.58-8.88,1.75ZM469.51,385.76H25.1v26.6h461.8v-26.6h-17.39ZM59.85,512h17.87v-84.83h-17.87v84.83ZM68.88,339.29c19.17,0,34.71-15.52,34.72-34.69,0-19.17-15.52-34.71-34.69-34.72-19.17,0-34.71,15.52-34.72,34.69,0,9.21,3.65,18.04,10.16,24.55,6.5,6.52,15.32,10.18,24.53,10.17ZM434.31,512h17.87v-84.83h-17.87v84.83ZM113.89,370.56c-4.73-4.73-8.5-10.33-11.09-16.49H33.49c-4.62.05-8.35,3.78-8.4,8.4v8.48h89.18l-.38-.39Z"/>
</svg>