<?xml version="1.0" encoding="UTF-8"?>
<svg id="Layer_1" xmlns="http://www.w3.org/2000/svg" version="1.1" viewBox="0 0 66 66">
  <!-- Generator: Adobe Illustrator 29.7.0, SVG Export Plug-In . SVG Version: 2.1.1 Build 14)  -->
  <defs>
    <style>
      .st0 {
        fill: #971f68;
      }
    </style>
  </defs>
  <path class="st0" d="M53.7,1H12.3c-2.3,0-4.2,1.9-4.2,4.2v55.7c0,2.3,1.9,4.2,4.2,4.2h41.5c2.3,0,4.2-1.9,4.2-4.2V5.2c-.1-2.3-2-4.2-4.3-4.2ZM12.1,5.8c0-.4.3-.8.8-.8h4.5c.4,0,.8.3.8.8,0,.4-.3.8-.8.8h-3.8v3.8c0,.4-.3.8-.8.8-.4,0-.8-.3-.8-.8l.1-4.6ZM11.1,15.4c0-.4.3-.8.8-.8.4,0,.8.3.8.8v9.2c0,.4-.3.8-.8.8-.4,0-.8-.3-.8-.8v-9.2ZM11.1,30.8v-1.8c0-.4.3-.8.8-.8.4,0,.8.3.8.8v1.8c0,.4-.3.8-.8.8-.5-.1-.8-.4-.8-.8ZM17.4,61h-4.5c-.4,0-.8-.3-.8-.8v-4.5c0-.4.3-.8.8-.8.4,0,.8.3.8.8v3.8h3.8c.4,0,.8.3.8.8-.2.4-.5.7-.9.7ZM45.2,55.5h-.9c-2.2,0-4.5-1-6.3-2.8-.3-.3-.6-.7-.9-1-.4-.4-.7-.8-1-1.1h-.1c-.1,0-.2.1-.2.3l-.2.6c-.1.5-.3,1-.6,1.4l-.5,1c-.3.6-.9.9-1.5.9s-1.2-.3-1.5-.9l-.5-1c-.2-.5-.4-.9-.6-1.4l-.2-.6c0-.2-.2-.3-.2-.3h-.1c-.3.3-.7.7-1,1.1s-.6.7-.9,1c-2,2.1-4.7,3.1-7.2,2.8-.1,0-.2,0-.3-.1-2.5-.4-4.5-1.7-5.8-3.7-2.8-4.2-1.6-10.4-1.1-13,0-.1.1-.4.2-.7,0-.1.1-.2.1-.3s-.1-.2-.1-.3c-.6-1.9-.5-3.9.4-5.8l.1-.2c.1-.3.2-.5.4-.7-.4-1.7-.3-3.4.5-5.1.5-1.1,1.2-1.7,1.9-2.4,0-1,.2-2,.7-2.9.5-1,1.3-2,2.3-2.8.1-.7.2-1.4.6-2,1-2.1,3.1-3.2,4.2-3.7,1.5-.7,3-.9,4.4-1.2,1.1-.2,2.2.6,2.5,1.8.2.7,0,1.4-.4,2-.3.5-.8.8-1.4.9-1.2.2-2.5.5-3.6.9-1.1.5-1.8,1.1-2,1.5q-.1.1,0,.2c.1.3.5.6,1.1.9,1.3.5,3,.4,4.6.3v-.2c0-1.5,1.1-2.7,2.4-2.7h1.4c1.3,0,2.4,1.2,2.4,2.7v.1c1.6.1,3.3.2,4.6-.3.6-.2,1-.6,1-.9v-.2c-.2-.4-.9-1.1-2-1.5-1.1-.5-2.4-.7-3.6-.9-1.1-.2-1.9-1.3-1.8-2.5,0-.7.4-1.4.9-1.8s1-.5,1.6-.4c1.5.3,2.9.5,4.5,1.2,1.1.5,3.2,1.6,4.2,3.7.3.6.5,1.3.5,2,1,.8,1.8,1.8,2.3,2.8.5.9.7,1.9.7,2.9.8.7,1.4,1.3,1.9,2.4.8,1.6,1,3.4.5,5.1.2.3.3.4.4.7l.1.2c.9,1.9,1.1,3.9.4,5.8,0,.1-.1.2-.1.3s.1.2.1.3c.1.3.2.6.2.7.5,2.6,1.7,8.8-1.1,13-1.3,2-3.3,3.2-5.8,3.7-.3.1-.4.2-.6.2h0ZM53.9,60.2c0,.4-.3.8-.8.8h-4.5c-.4,0-.8-.3-.8-.8,0-.4.3-.8.8-.8h3.8v-3.8c0-.4.3-.8.8-.8.4,0,.8.3.8.8l-.1,4.6ZM53.9,10.2c0,.4-.3.8-.8.8-.4,0-.8-.3-.8-.8v-3.7h-3.8c-.4,0-.8-.3-.8-.8,0-.4.3-.8.8-.8h4.5c.4,0,.8.3.8.8l.1,4.5Z"/>
  <path class="st0" d="M29.9,44.7v.3c0,.4-.2.8-.6.8-.7.2-1.5.6-2.2,1.1-.6.5-1.2,1.1-1.6,1.7-.2.3-.5.6-.7.8-1.2,1.1-2.6,1.8-3.8,1.6-1.4-.2-2.3-.8-2.9-1.8-1.4-2.1-1.2-5-1-7,1.1,1,2.3,1.8,3.3,2.2,1.4.5,2.4.2,3.4-.1.6-.2,1.3-.4,2.1-.4,1.3,0,2.2-.1,3.2-.2.2,0,.3.1.4.1.3.3.4.6.4.9Z"/>
  <path class="st0" d="M29.9,38.1c0,.6-.3.9-.6,1-3.2.3-6.1.4-8.8-.6-1.4-.5-2.6-1.6-2.9-2.7-.1-.2-.1-.5-.1-.7,1,.9,2.1,1.6,3.1,2,1.5.6,2.7.4,3.9.3.6,0,1.1-.1,1.8-.1,1.2,0,2,0,2.9-.1.2,0,.3.1.4.1.2.2.3.5.3.8Z"/>
  <path class="st0" d="M29.9,31.2v.4c0,.4-.3.8-.6.9-2.8.2-5.6.3-8-.6-1.3-.5-2.3-1.4-2.6-2.4-.2-.5-.1-1,.2-1.6q0-.1.1-.2c1,1.2,2.3,2.2,3.6,2.7,1.2.5,2.2.3,3.1.2.5-.1,1-.1,1.5-.1.9,0,1.5,0,2.1-.1.2,0,.3.1.4.1.1.1.2.4.2.7Z"/>
  <path class="st0" d="M29.9,24.7c0,.4-.3.8-.6.9-2.1.1-4.2.2-6.1-.5-.9-.3-1.7-1-1.9-1.7-.1-.3-.1-.6.1-.9.1-.2.2-.4.4-.6.6.6,1.3,1,2.1,1.3,1.1.4,2.5.6,4.1.6h1.3c.1,0,.3.1.3.1.2.2.3.5.3.8Z"/>
  <path class="st0" d="M44.7,23.4c-.2.6-1,1.3-1.9,1.6-1.9.7-4,.6-6.1.5-.3,0-.6-.4-.6-.9,0-.3.1-.6.3-.7.1-.1.2-.1.3-.1h1.3c1.6,0,3-.2,4.1-.6.8-.3,1.5-.7,2.1-1.3.2.2.3.4.4.6.1.4.2.6.1.9Z"/>
  <path class="st0" d="M47.3,29.5c-.3,1-1.4,1.9-2.6,2.4-2.4.9-5.2.8-8,.6-.3,0-.6-.4-.6-.9v-.4c0-.3.1-.6.3-.7.1-.1.2-.1.3-.1.6.1,1.2.1,2.1.1.6,0,1.1.1,1.5.1.9.1,1.9.3,3.1-.2s2.6-1.5,3.6-2.7q0,.1.1.2c.3.5.4,1,.2,1.6Z"/>
  <path class="st0" d="M48.5,35.1c0,.2,0,.4-.1.7-.4,1.1-1.5,2.1-2.9,2.7-2.6,1-5.5.9-8.8.6-.3,0-.6-.4-.6-.9v-.1c0-.3.1-.5.3-.7.1-.1.2-.1.3-.1.9.1,1.7.1,2.9.1.6,0,1.2.1,1.8.1,1.3.1,2.5.2,3.9-.3,1.1-.5,2.2-1.2,3.2-2.1Z"/>
  <path class="st0" d="M47.9,49.3c-.6,1-1.6,1.5-2.9,1.8-1.2.2-2.6-.4-3.8-1.6-.2-.2-.5-.5-.7-.8-.4-.5-.9-1.1-1.6-1.7-.7-.5-1.4-.9-2.2-1.1-.3-.1-.6-.4-.6-.8v-.4c0-.3.1-.6.3-.7.1-.1.2-.1.3-.1,1,.1,1.9.2,3.2.2.8,0,1.5.2,2.1.4,1,.3,2,.6,3.4.1,1-.4,2.2-1.2,3.3-2.2.4,2,.6,4.7-.8,6.9Z"/>
  <path class="st0" d="M51.2,39.7c-.3.5-.7.9-1.1,1.4.4,2.2,1,6.1-1,9.1-.9,1.3-2.1,2.1-3.9,2.4-1.7.3-3.6-.5-5.1-2-.3-.3-.5-.6-.8-.9-.4-.5-.9-1-1.4-1.4s-1.1-.7-1.6-.9c-1-.3-1.7-1.2-1.7-2.3v-.4c0-.7.3-1.4.8-1.8.4-.4,1-.6,1.5-.5,1,.1,1.8.2,3.1.2,1.1,0,1.9.2,2.5.5.9.3,1.5.5,2.5.1,2-.7,4.4-3.2,5.5-5.1.1-.1.1-.2.2-.3.1-.2.2-.4.3-.7.5-1.5.4-3-.3-4.5-.2.4-.5.8-.8,1.2,0,0,0,.1-.1.1.3.8.3,1.6,0,2.5-.5,1.5-2,2.9-3.9,3.6-2.9,1.1-6.1,1-9.4.7-1.1-.1-2-1.1-2-2.4v-.1c0-.7.3-1.4.8-1.8.4-.4,1-.6,1.5-.5.8,0,1.6.1,2.8.1.7,0,1.3.1,1.9.1,1.2.1,2.1.2,3.3-.2s2.4-1.4,3.4-2.5l.1-.1c.1-.1.2-.2.2-.3.6-.7,1-1.5,1.3-2.2.5-1.4.3-2.9-.3-4.3-.3-.5-.5-.9-.9-1.2v.1c0,.1,0,.2-.1.2-.1.4-.3.7-.5,1,.1.2.2.3.3.5,0,.1.1.2.1.3.4.9.5,1.8.2,2.7-.5,1.4-1.8,2.7-3.5,3.3-2.7,1-5.6.9-8.6.7-1.1-.1-2-1.1-2-2.4v-.4c0-.7.3-1.4.8-1.8.4-.4,1-.6,1.5-.5.6.1,1.2.1,2,.1.7,0,1.2.1,1.8.1.9.1,1.5.2,2.4-.1,1.7-.6,3.7-2.7,4.2-4.3.1-.2.1-.5.2-.7,0-.1,0-.3.1-.5.1-.9-.1-1.7-.5-2.5-.3-.6-.6-1.1-1.1-1.6q0,.1-.1.2c-.1.5-.4.9-.6,1.3.3.4.6.7.8,1.1.3.7.4,1.4.2,2-.4,1.1-1.4,2.1-2.8,2.6-2.1.8-4.5.7-6.7.5-1.1-.1-2-1.1-2-2.4,0-.7.3-1.4.8-1.8.4-.4.9-.6,1.5-.6h1.2c1.4,0,2.6-.2,3.6-.5,1.3-.5,2.4-1.5,2.8-2.8v-.2c.1-.3.1-.7.1-1.1,0-.6-.1-1.2-.4-1.7-.8-1.6-2.5-2.6-3.4-3-1.3-.6-2.8-.8-4.1-1.1-.2,0-.3,0-.4.1-.2.2-.3.4-.3.7,0,.5.3.9.6.9,1.2.2,2.6.5,3.9,1,1.3.6,2.3,1.4,2.8,2.3.2.4.2.9.1,1.3-.2.8-1,1.4-2,1.8-1.8.7-4.1.5-6,.3-.4,0-.7-.4-.7-.8v-1c0-.7-.4-1.2-.9-1.2h-1.4c-.5,0-.9.6-.9,1.2v1c0,.4-.3.7-.7.8-1.9.1-4.2.3-6-.3-1-.4-1.7-1.1-1.9-1.8-.1-.4-.1-.9.1-1.3.4-.9,1.4-1.7,2.8-2.3,1.3-.5,2.6-.8,4-1,.2,0,.3-.2.4-.3.1-.2.2-.5.1-.9s-.5-.7-.8-.6c-1.3.2-2.7.5-4.1,1.1-.9.4-2.6,1.3-3.4,3-.3.6-.4,1.1-.4,1.7,0,.4.1.7.1,1.1q0,.1.1.2c.4,1.2,1.4,2.3,2.8,2.8,1,.4,2.1.5,3.6.5h1.2c.5,0,1.1.2,1.5.6.5.4.8,1.1.8,1.8,0,1.2-.9,2.3-2,2.4-2.2.2-4.6.3-6.7-.5-1.4-.5-2.4-1.5-2.8-2.6-.2-.7-.2-1.4.2-2,.2-.4.4-.7.8-1.1-.3-.4-.5-.8-.6-1.3q0-.1-.1-.2c-.5.5-.8,1-1.1,1.6-.4.8-.6,1.7-.5,2.5,0,.2,0,.3.1.5,0,.2.1.4.2.7.5,1.6,2.6,3.7,4.2,4.3.8.3,1.5.2,2.4.1.5-.1,1.1-.1,1.8-.1.8,0,1.4,0,2-.1.5,0,1.1.1,1.5.5.5.5.8,1.1.8,1.8v.4c0,1.2-.9,2.3-2,2.4-3,.2-5.9.4-8.6-.7-1.7-.6-3.1-1.9-3.5-3.3-.9-1-.9-1.9-.4-2.8.1-.1.1-.2.1-.3.1-.2.2-.4.3-.5-.2-.3-.4-.7-.5-1,0-.1-.1-.1-.1-.2v-.1c-.3.3-.6.7-.9,1.2-.7,1.4-.8,2.9-.3,4.3.2.7.7,1.4,1.2,2.2.1.1.2.2.3.3l.1.1c1,1.1,2.2,2.1,3.4,2.5,1.1.4,2.1.3,3.3.2.6-.1,1.2-.1,1.9-.1,1.2,0,2,0,2.8-.1.5,0,1.1.1,1.5.5.5.4.8,1.1.8,1.8v.1c0,1.2-.9,2.3-2,2.4-3.2.3-6.4.5-9.4-.7-1.9-.7-3.3-2.1-3.8-3.6-.3-.9-.3-1.7,0-2.5,0,0,0-.1-.1-.1-.3-.4-.6-.8-.8-1.2-.7,1.5-.7,3-.3,4.5.1.5.4,1,.8,1.5.4.6.8,1.1,1.3,1.6,1.2,1.3,2.6,2.5,3.9,2.9.9.4,1.6.2,2.5-.1.7-.2,1.5-.5,2.6-.5,1.2,0,2.1-.1,3.1-.2.5,0,1.1.1,1.5.5.5.5.8,1.1.8,1.8v.6c0,1.1-.7,2-1.7,2.3-.5.1-1.1.4-1.6.9-.5.4-1,1-1.4,1.4-.3.3-.5.6-.8.9-1.5,1.5-3.5,2.3-5.1,2-1.8-.3-3.1-1.1-3.9-2.4-2-3-1.4-7.1-1-9.1-.4-.4-.7-.9-1.1-1.3-.5,2.7-1.2,7.9,1,11.3,1.1,1.6,2.7,2.6,4.8,3h.3c2,.2,4.2-.6,5.9-2.4.3-.3.6-.6.8-.9.4-.5.8-.9,1.2-1.3.5-.4,1-.5,1.5-.3.6.2,1,.7,1.2,1.3l.2.6c.1.4.3.8.4,1.1l.5.9c.1.2.3.2.4,0l.5-.9c.2-.3.4-.7.4-1.1l.2-.6c.2-.7.6-1.2,1.2-1.3.2-.1.3-.1.5-.1.4,0,.7.1,1,.4.5.4.8.8,1.2,1.3.3.3.5.6.9,1,1.7,1.7,3.9,2.6,5.9,2.4h.2c2.1-.4,3.8-1.4,4.8-3,2.5-3.6,1.8-8.7,1.3-11.4h0ZM33.6,48.3h-1.2c-.4,0-.7-.3-.7-.8,0-.4.3-.8.7-.8h1.2c.4,0,.8.3.8.8-.1.5-.4.8-.8.8ZM33.6,41.9h-1.2c-.4,0-.7-.3-.7-.8,0-.4.3-.8.7-.8h1.2c.4,0,.8.3.8.8-.1.5-.4.8-.8.8ZM33.6,35.5h-1.2c-.4,0-.7-.3-.7-.8,0-.4.3-.8.7-.8h1.2c.4,0,.8.3.8.8-.1.4-.4.8-.8.8ZM33.6,29h-1.2c-.4,0-.7-.3-.7-.8,0-.4.3-.8.7-.8h1.2c.4,0,.8.3.8.8-.1.5-.4.8-.8.8ZM33.6,22.6h-1.2c-.4,0-.7-.3-.7-.8,0-.4.3-.8.7-.8h1.2c.4,0,.8.3.8.8-.1.5-.4.8-.8.8Z"/>
</svg>